# xmcd
#
# Track frame offsets: 
#        150
#        9752
#        22010
#        30982
#        45055
#        55612
#        67027
#        78887
#        88367
#        112720
#        155115
#        188284
#        238465
#
# Disc length: 3533 seconds
#
# Revision: 1
# Processed by: cddbd v1.5.2PL0 Copyright (c) Steve Scherf et al.
# Submitted via: ExactAudioCopy v1.0b4
#
DISCID=8e0dcb0d
DTITLE=Canned Heat - Bullfrog Blues
DYEAR=1991
DGENRE=Blues
TTITLE0=Big Road Blues
TTITLE1=Got My Mojo Working
TTITLE2=Pretty Thing
TTITLE3=Louise
TTITLE4=Dimples
TTITLE5=Talk To Me Baby
TTITLE6=Straight Ahead
TTITLE7=Rollin' and Tumblin'
TTITLE8=I'd Rather Be A Devil
TTITLE9=It Hurts Me Too
TTITLE10=Bull Frog Blues
TTITLE11=Sweet Sixteen
TTITLE12=Dust My Broom
EXTD=ID3G:   Good Old Blues
EXTT0=
EXTT1=
EXTT2=
EXTT3=
EXTT4=
EXTT5=
EXTT6=
EXTT7=
EXTT8=
EXTT9=
EXTT10=
EXTT11=
EXTT12=
PLAYORDER=
